<svg width="398" height="416" viewBox="0 0 398 416" fill="none" xmlns="http://www.w3.org/2000/svg">
<path d="M379.593 184.655C385.636 178.31 388.599 162.93 381.859 164.374C375.981 165.029 377.245 178.893 377.344 175.644C377.368 174.83 379.183 170.001 380.882 169.235C381.744 168.445 383.394 169.307 384.183 170.951C384.872 175.844 380.546 180.609 379.593 184.655Z" fill="#E2BE7F"/>
<path d="M380.012 200.738C380.168 197.937 380.119 195.654 379.856 193.882C379.602 191.935 379.117 190.857 378.592 190.65C376.974 190.386 376.063 190.689 375.644 191.543C375.053 192.39 374.618 193.77 374.15 195.678C373.699 197.41 373.025 199.661 371.975 202.239C371.104 204.825 369.495 207.722 367.164 210.763C365.193 213.644 362.919 215.624 360.497 216.901C358.075 218.178 355.489 219.096 352.92 219.838C350.35 220.58 347.608 221.131 344.677 221.857C341.755 222.408 338.807 223.478 335.655 224.89C328.561 229.081 322.281 234.724 316.641 241.795C311.009 248.867 305.714 256.322 300.919 264.487C296.133 272.484 291.527 280.498 287.455 288.711C283.202 296.732 278.999 304.059 274.853 310.341C270.88 316.798 266.619 321.842 262.259 325.482C257.908 329.114 253.302 330.63 248.295 329.832C242.219 328.627 238.041 325.769 235.766 321.26C233.673 316.59 233.065 311.458 233.583 305.512C234.092 299.574 235.512 293.675 238.024 287.482C240.347 281.464 242.991 276.332 245.922 272.269C248.098 268.877 248.951 266.634 248.639 265.74C248.163 264.662 247.038 265.301 245.29 267.496C240.224 274.073 236.029 281.224 232.515 289.118C229.19 296.844 227.351 303.772 227.023 309.726C226.826 313.23 226.982 316.918 227.663 320.821C228.172 324.716 229.231 328.283 230.668 331.692C232.097 335.108 234.092 338.197 236.489 340.607C239.067 343.033 242.039 344.765 245.791 345.492C252.744 347.096 259.14 345.851 264.936 342.291C270.921 338.572 276.273 333.408 281.339 326.831C286.396 320.254 291.338 312.783 295.772 304.594C300.213 296.23 304.63 288.384 308.842 280.881C313.061 273.195 317.232 266.57 321.345 260.823C325.466 255.069 329.834 251.261 334.251 249.745C337.264 247.622 340.055 246.193 342.986 245.467C345.744 244.565 348.322 243.815 351.073 243.088C353.815 242.53 356.384 241.787 358.97 240.694C361.729 239.792 364.348 238.172 367.18 236.041C369.257 234.396 371.187 232.217 372.787 229.312C374.397 226.415 375.661 223.318 376.745 220.046C377.656 216.757 378.559 213.461 379.117 209.981C379.675 206.692 380.028 203.548 380.012 200.738Z" fill="#E2BE7F"/>
<path d="M361.261 110.483C360.793 110.14 360.317 110.116 359.635 110.706C356.294 113.029 352.953 115.352 349.751 117.842C346.721 120.34 343.364 122.814 339.998 125.448C336.804 127.93 333.126 130.548 329.284 133.007C325.45 135.457 320.984 137.716 316.189 139.967C313.07 141.204 309.769 142.593 306.329 143.822C302.725 145.035 299.285 146.104 296.018 147.182C292.594 148.092 289.475 149.177 286.7 149.968C283.753 150.901 281.462 151.715 279.804 152.418C276.019 154.094 272.866 155.802 270.502 157.861C267.973 159.913 266.085 162.012 264.698 163.967C263.13 166.074 262.218 168.054 261.471 169.889C260.872 171.885 260.461 173.585 260.215 174.982C259.903 177.775 260.232 180.449 261.373 183.011C262.366 185.406 264.016 187.377 266.028 188.886C268.203 190.25 270.559 191.16 273.449 191.312C276.331 191.464 279.426 190.689 282.431 188.814C286.068 186.978 288.81 183.993 290.46 180.329C292.118 176.666 292.98 172.651 293.202 168.596C293.243 167.822 293.112 167.343 292.816 166.856C292.521 166.37 291.872 166.497 290.87 167.224C290.164 168.277 288.949 169.937 287.373 172.188C285.641 174.439 283.769 176.219 281.946 177.217C280.452 178.071 278.827 178.454 277.045 178.677C275.255 179.052 273.49 178.957 271.898 178.717C270.305 178.326 269.057 177.791 267.973 177.105C266.898 176.267 266.323 174.982 266.405 173.585C266.537 171.246 267.612 169.275 269.796 167.511C271.824 165.739 273.835 164.286 275.674 163.129C277.833 161.836 280.797 160.591 284.557 159.386C288.161 158.173 292.25 156.983 296.675 155.499C301.083 154.174 305.664 152.849 310.41 151.38C315.155 149.912 319.596 148.116 323.726 146.144C321.049 150.853 318.677 155.882 316.288 161.222C313.907 166.41 311.674 171.757 309.465 176.794C307.249 181.99 304.876 187.018 302.676 191.903C300.484 196.636 298.152 200.882 295.542 204.498C293.087 208.113 290.509 211.106 287.66 213.142C284.803 215.336 281.856 216.27 278.654 216.103V216.127C277.259 216.015 276.093 215.608 275.247 214.826C274.172 213.988 273.269 212.846 272.538 211.553C271.816 210.109 271.249 208.672 270.699 207.084C270.305 205.503 269.747 204.066 269.024 202.622C268.138 201.169 267.243 200.028 266.011 199.022C264.78 198.024 263.195 197.617 261.118 197.514C258.072 197.354 255.412 198.934 252.966 202.398C250.363 205.854 247.859 210.252 245.298 215.903C242.72 221.706 239.789 228.115 236.817 235.298C233.829 242.641 230.2 250.104 225.915 257.695C221.785 265.445 216.703 272.836 210.989 280.195C205.284 287.394 198.486 293.907 190.613 299.582C182.74 305.257 173.487 309.766 163.159 313.286C152.684 316.638 140.541 318.179 127.053 317.931C118.851 317.963 111.224 316.311 104.172 313.118C96.9558 309.926 90.9298 305.696 85.7658 300.268C83.738 298.065 81.9073 295.679 80.2735 293.141C79.8548 293.556 79.4361 293.955 79.0256 294.386C76.0455 297.451 73.0407 300.931 69.8553 304.85C71.5547 308.082 73.484 311.171 75.6678 314.108C81.1848 321.747 88.2205 328.06 96.7915 332.889C105.207 337.71 114.861 340.256 125.78 340.519C140.706 340.998 154.334 338.755 166.172 333.91C178.183 329.082 188.995 322.465 198.469 314.06C207.944 305.656 216.359 295.942 223.591 284.608C230.808 273.426 237.096 261.566 242.769 249.37C243.714 246.768 245.011 243.703 246.341 240.023C247.687 236.184 249.329 232.68 250.971 229.176C252.457 225.657 254.222 222.783 256.135 220.229C258.04 217.835 260.035 216.685 262.112 216.797C263.712 216.885 264.936 218.042 265.453 220.253C266.134 222.472 266.964 224.866 267.776 227.564C268.745 230.27 269.894 232.832 271.536 235.107C272.825 237.086 274.779 238.387 277.374 238.898L277.365 239.01C277.521 239.002 277.677 238.978 277.833 238.97C278.071 239.01 278.293 239.05 278.539 239.074L278.548 238.906C283.695 238.411 288.219 236.695 291.962 233.846C295.985 230.932 299.589 226.902 302.421 222.209C305.426 217.364 307.98 212.032 310.089 205.894C312.355 199.916 314.629 193.786 316.912 187.505C319.194 181.215 321.624 175.093 324.218 168.988C326.977 162.882 330.171 157.422 334.152 152.474C335.195 151.125 336.566 149.632 338.265 147.852C339.973 146.065 341.837 144.285 343.881 142.369C345.909 140.597 347.945 138.682 350.128 136.918C352.32 135.162 354.34 133.549 356.351 132.097C356.524 131.945 357.025 131.506 357.87 130.924C358.535 130.493 359.069 129.575 359.291 128.497C359.611 125.704 359.914 123.221 360.202 120.891L361.433 113.3C361.663 111.904 361.556 110.962 361.261 110.483Z" fill="#E2BE7F"/>
<path d="M72.269 264.495C71.8667 260.568 71.8913 256.505 72.3675 252.307C75.3395 207.946 121.922 189.58 155.212 169.203C115.822 178.837 76.8254 205.415 64.0592 243.623C63.2383 246.816 62.6061 250.152 62.171 253.64C60.8656 263.146 61.35 272.596 63.4681 281.719C66.4565 278.279 69.7732 274.783 73.4266 271.215C72.9011 269.028 72.4989 266.786 72.269 264.495Z" fill="#E2BE7F"/>
<path d="M80.4049 290.555C83.7298 287.242 87.0384 284.369 90.3223 281.759C93.8525 278.981 97.3663 276.507 100.864 274.504C104.353 272.5 107.669 270.649 111.134 268.957C113.622 267.688 116.741 266.442 120.337 265.381C123.941 264.168 127.545 262.954 131.002 261.574C134.45 260.193 137.766 258.493 140.911 256.793C143.907 254.917 146.296 252.546 148.053 249.825C150.188 246.185 151.863 242.059 152.93 237.27C153.997 232.641 154.588 227.828 154.867 222.839C154.917 221.905 154.621 221.578 153.817 221.53C153.02 221.49 151.871 221.897 150.549 222.448C149.219 223.158 147.733 224.02 145.894 225.17C144.228 226.175 142.397 227.333 140.402 228.474C138.39 229.927 136.067 231.212 133.432 232.321C130.805 233.279 128.391 233.455 126.018 232.712C125.386 232.521 124.59 232.321 123.966 231.978C123.498 231.715 122.997 231.547 122.455 231.395C122.833 228.793 123.908 226.447 125.69 224.252C127.603 221.69 130.156 219.176 133.341 216.845C136.363 214.506 139.712 212.184 143.218 209.869C146.723 207.554 150.081 205.072 153.267 202.59C156.296 200.092 159.178 197.434 161.443 194.433C163.693 191.583 165.327 188.231 166 184.823C168.455 192.613 170.745 200.547 172.871 208.472C174.834 216.39 177.912 224.523 181.951 232.712C183.536 235.921 185.153 238.667 187.124 240.798C188.93 242.921 190.917 244.749 193.1 245.962C195.112 247.319 197.312 248.22 199.529 248.803C200.9 249.162 202.213 249.45 203.551 249.657L203.543 249.793C203.707 249.777 203.863 249.745 204.019 249.721C204.692 249.809 205.366 249.889 206.055 249.921L206.088 249.402C211.03 248.436 215.447 246.177 219.232 242.498C223.649 238.204 227.163 232.92 229.913 226.966C232.507 220.852 234.322 214.227 235.348 207.403C236.218 200.419 236.259 194.01 235.299 188.183C234.338 182.349 232.515 177.56 229.839 173.824C227.327 169.945 223.723 168.181 219.199 168.573C218.386 168.684 217.672 170.057 217.032 172.835C216.391 175.612 215.743 178.709 215.226 182.117C214.708 185.533 214.216 188.63 213.887 191.583C213.567 194.377 213.313 196.077 213.296 196.396C213.075 197.482 213.378 197.649 214.06 197.067C214.741 196.476 215.447 195.263 216.022 193.571C220.578 195.375 223.673 197.578 225.463 200.012C227.105 202.287 227.926 204.825 227.795 207.163C227.499 209.654 226.555 212.096 224.806 214.658C223.066 217.068 221.013 219.144 218.657 221.051C216.301 222.959 213.805 224.388 211.334 225.513C209.003 226.359 207.082 226.83 205.448 226.862C201.392 226.431 198.215 225.345 195.801 223.589C193.026 221.41 190.793 218.314 189.258 214.179C187.444 209.39 185.375 203.189 183.06 195.718C180.909 188.103 178.462 180.313 175.843 172.523C172.568 162.187 169.087 152.633 165.401 143.838C161.714 135.042 158.291 127.356 155.286 120.635C154.243 119.175 153.308 118.656 152.487 118.927C151.501 119.183 150.795 120.404 150.18 122.711C149.884 125.193 149.424 127.675 149.293 130.006C149.006 132.336 148.71 134.659 148.406 137.309C151.099 143.694 153.349 149.441 155.294 154.86C157.248 160.12 159.194 165.691 161.271 171.582C160.45 174.67 158.857 177.392 156.304 179.914C153.915 182.445 151.042 184.943 147.848 187.441C144.654 189.923 141.297 192.565 137.766 195.191C134.244 197.817 130.854 200.922 127.759 204.506C124.516 207.93 121.872 212.008 119.697 216.422C117.694 220.812 116.282 226.151 115.92 232.162C115.92 232.17 115.92 232.178 115.92 232.178C115.92 232.225 115.912 232.265 115.912 232.313H115.937C116.15 234.165 116.347 236.304 116.676 238.762C117.012 241.436 117.497 244.118 118.162 246.656C109.837 248.867 102.267 252.068 95.6012 256.242C88.7706 260.568 82.7282 265.094 77.3098 269.962C75.9141 271.255 74.5677 272.532 73.2624 273.809C69.609 277.377 66.2923 280.873 63.3039 284.313C63.1972 284.433 63.0823 284.553 62.9837 284.672C58.846 289.613 55.0778 293.787 51.8349 297.211C49.4459 299.741 46.9337 301.481 44.3065 302.439C41.8272 303.557 39.2247 304.195 36.967 304.395C34.5451 304.578 32.3039 304.459 30.391 304.043C28.3303 303.62 26.7541 303.07 25.6704 302.224C22.7395 300.037 20.7938 297.435 19.825 294.729C18.8645 291.864 18.3719 289.182 18.5361 286.221C18.6921 283.419 19.3324 280.642 20.293 277.88C21.4095 275.126 22.6738 272.692 23.9135 270.569C26.2204 266.626 29.5043 262.587 33.9212 258.445C38.5022 254.159 43.2639 249.41 48.5428 244.222C53.8134 239.026 59.1252 233.215 64.4697 226.782C69.9785 220.357 74.5677 212.942 78.5659 204.713C79.1159 203.492 79.666 202.271 79.7481 200.866C79.9944 199.318 80.0601 198.224 79.7809 197.426C79.5018 196.636 79.0174 196.604 78.3524 197.043C77.5315 197.466 76.6284 199.142 75.1917 201.88C71.3823 209.646 66.8095 216.598 61.4732 222.871C55.989 228.993 50.5213 234.796 45.07 240.135C39.4628 245.459 34.3727 250.344 29.4304 255.244C24.6606 259.993 20.8595 264.79 18.1831 269.491C16.3687 273.147 15.0305 276.986 14.3245 281.009C13.4542 285.031 13.3886 288.934 13.8155 292.861C14.2506 296.629 15.3261 300.284 16.8941 303.964C18.4622 307.484 20.5393 310.564 23.2813 313.366C27.7146 317.508 32.0658 320.086 36.1953 321.084C40.4726 322.09 44.5036 321.994 48.2719 320.781C52.0237 319.735 55.5129 317.732 58.7229 314.93C62.0971 312.137 64.8474 308.848 67.4581 305.392C68.3201 304.307 69.1493 303.277 69.9785 302.256C73.1639 298.337 76.1686 294.857 79.1488 291.792C79.5757 291.361 79.9862 290.97 80.4049 290.555Z" fill="#E2BE7F"/>
<path d="M165.639 273.833C165.22 273.809 165.507 272.389 166.082 269.739C166.648 267.097 167.445 264.263 168.471 261.023C169.497 257.79 170.507 254.965 171.5 252.339C172.699 249.729 173.627 248.34 174.267 248.372C174.899 248.404 176.558 248.899 179.07 249.45C181.566 250.2 184.267 251.166 186.943 252.331C189.636 253.504 192.099 254.67 194.151 256.01C196.179 257.559 197.164 258.844 197.09 260.081C197 261.717 196.68 263.761 195.883 266.602C195.095 269.228 194.11 271.854 193.108 274.48C191.902 277.09 190.933 279.301 189.767 281.296C188.601 283.092 187.715 283.866 186.894 283.411C184.209 282.238 180.712 280.61 176.582 278.542C172.683 276.667 168.964 275.031 165.639 273.833Z" fill="#E2BE7F"/>
<path d="M101.405 368.095C100.987 368.072 101.274 366.651 101.849 364.001C102.415 361.359 103.212 358.526 104.238 355.285C105.264 352.053 106.274 349.227 107.267 346.601C108.466 343.991 109.394 342.602 110.034 342.634C110.666 342.666 112.324 343.161 114.837 343.712C117.332 344.462 120.033 345.428 122.71 346.593C125.403 347.766 127.865 348.932 129.918 350.273C131.946 351.821 132.931 353.106 132.857 354.343C132.767 355.979 132.447 358.023 131.65 360.864C130.862 363.49 129.877 366.116 128.875 368.742C127.668 371.352 126.7 373.563 125.534 375.558C124.368 377.354 123.481 378.128 122.661 377.673C119.976 376.5 116.479 374.872 112.349 372.805C108.449 370.937 104.73 369.293 101.405 368.095Z" fill="#E2BE7F"/>
<path d="M346.377 189.54C345.326 191.049 344.423 192.876 343.503 194.856C342.584 196.843 341.837 198.831 341.246 200.682C340.819 202.534 340.425 203.763 340.4 204.226C340.375 204.697 341.467 205.375 343.503 206.269C345.547 207.004 347.756 207.746 350.293 208.504C352.821 209.263 355.038 209.853 357.107 210.276C359.167 210.699 360.284 210.915 360.3 210.603C361.245 208.153 362.525 205.407 363.97 202.51C365.588 199.469 366.852 196.883 367.771 194.896C368.124 194.297 367.517 193.635 366.121 192.781C364.561 191.919 362.837 191.2 360.793 190.306C358.749 189.572 356.696 188.838 354.636 188.263C352.419 187.68 350.826 187.433 349.546 187.369C348.585 187.305 347.584 188.04 346.377 189.54Z" fill="#E2BE7F"/>
<path d="M334.021 166.585C332.97 168.094 332.067 169.921 331.148 171.901C330.228 173.888 329.481 175.876 328.89 177.727C328.463 179.579 328.069 180.808 328.044 181.271C328.02 181.742 329.112 182.421 331.148 183.314C333.192 184.049 335.4 184.791 337.937 185.549C340.466 186.308 342.682 186.898 344.751 187.321C346.812 187.744 347.928 187.96 347.945 187.648C348.889 185.198 350.17 182.452 351.614 179.555C353.232 176.514 354.496 173.928 355.416 171.941C355.769 171.342 355.161 170.68 353.765 169.826C352.206 168.964 350.482 168.245 348.437 167.351C346.393 166.617 344.341 165.883 342.28 165.308C340.063 164.725 338.471 164.478 337.19 164.414C336.229 164.358 335.228 165.093 334.021 166.585Z" fill="#E2BE7F"/>
<path d="M104.903 130.389C129.598 126.183 152.979 118.353 172.338 102.557C188.051 89.7387 201.909 74.901 213.928 58.5947C220.127 52.9837 223.591 44.7148 233.566 39C228.772 55.0429 218.173 65.0119 211.687 77.1678C197.46 95.0704 184.743 113.979 171.927 134.1C171.583 123.445 177.223 115.902 181.27 107.825C181.779 106.851 182.288 105.893 182.797 104.928C181.27 104.177 181.172 105.718 180.465 106.292C160.713 119.654 140.246 131.642 116.667 137.652C100.987 140.174 85.3554 141.515 67.9589 135.569C81.5953 133.581 93.4995 133.526 104.903 130.389Z" fill="#E2BE7F"/>
<path d="M270.798 73.2887C269.755 72.0037 268.917 70.9182 267.637 70.2558C266.578 69.5933 265.502 69.3538 264.632 69.3299C263.762 69.306 263.105 69.713 262.645 70.5431C262.407 71.1657 262.374 72.2112 262.99 73.5042C263.811 74.9968 265.042 77.5589 266.66 81.1825C268.515 84.5986 269.919 88.2143 271.11 92.0374C271.873 95.4296 272.645 98.8217 272.973 102.413C273.515 106.005 273.203 109.365 272.029 112.494C271.561 113.739 270.683 114.354 269.582 114.745C268.499 114.929 267.653 114.059 266.84 112.35C266.438 111.081 266.052 109.804 265.658 108.527C265.264 107.043 264.87 105.774 264.263 104.489C263.655 102.988 262.818 101.919 261.775 100.626C260.946 99.3326 259.46 98.2471 257.752 97.3531C257.317 97.5447 257.087 97.9677 256.652 98.1673C255.774 98.5583 254.903 98.7499 254.255 98.7339C251.004 98.6461 248.869 97.7442 247.416 95.5972C246.168 93.6657 245.577 91.7581 245.848 89.8664C246.587 86.9372 247.712 85.5005 249.452 85.1254C250.971 84.9578 252.703 85.0057 254 85.4606C256.562 86.586 258.688 87.903 260.371 89.643C262.276 91.3829 263.737 93.1069 264.985 94.823C266.446 96.7625 267.67 99.1091 268.696 101.248C268.762 99.149 268.384 97.0339 267.588 94.8948C266.791 92.5562 265.765 90.4251 264.747 88.2941C263.721 86.163 262.694 84.2315 261.455 82.3079C260.215 80.3764 259.394 78.6763 258.581 76.9603C258.179 75.6912 257.801 73.9911 257.645 71.884C257.49 69.9844 257.76 67.8852 258.253 66.0016C258.737 64.1259 259.435 62.4578 260.56 61.0131C261.463 59.776 262.998 58.9778 264.739 59.0257C267.768 59.1135 270.108 60.646 272.193 63.4395C274.065 66.0176 274.837 69.2022 274.508 72.9854C274.475 74.2465 274.032 74.6616 272.948 74.4141C271.857 74.3742 271.216 73.9273 270.798 73.2887Z" fill="#E2BE7F"/>
<path d="M253.204 126.741C254.6 126.015 256.8 124.929 259.599 123.477C262.588 122.224 265.584 120.779 269.172 119.151C272.554 117.714 276.15 116.094 279.935 114.474C283.514 112.853 286.913 111.417 289.91 109.964C293.095 108.711 295.681 107.442 297.873 106.556C300.074 105.462 301.272 104.928 301.666 104.752C302.668 104.201 303.267 104.034 303.448 104.225C303.637 104.425 303.628 104.808 303.407 105.758C302.98 107.083 302.553 108.216 302.134 108.974C301.724 109.725 301.51 110.108 301.305 110.291C301.108 110.475 299.901 111.209 297.512 112.295C295.312 113.388 292.521 114.649 289.327 116.086C285.936 117.714 282.349 119.334 278.351 121.146C274.566 122.758 270.773 124.57 266.988 126.19C263.392 128.002 260.002 129.631 257.202 131.083C254.206 132.528 252.211 133.621 251.004 134.547C251.242 133.214 251.464 132.073 251.702 130.932C251.931 129.982 252.145 129.032 252.367 128.274C252.596 127.491 252.81 126.925 253.204 126.741Z" fill="#E2BE7F"/>
<path d="M370.809 135.712C362.139 146.049 359.816 167.958 370.76 165.819C377.5 164.374 374.749 143.957 374.602 148.834C374.552 150.462 373.526 156.943 370.136 158.476C369.274 159.266 366.794 158.38 366.023 155.922C363.716 149.353 369.783 142.194 370.809 135.712Z" fill="#E2BE7F"/>
<path d="M210.579 317.349C201.909 327.685 199.586 349.594 210.53 347.455C217.27 346.011 214.52 325.594 214.372 330.47C214.323 332.099 213.296 338.58 209.906 340.112C209.044 340.902 206.564 340.016 205.793 337.558C203.486 330.989 209.553 323.83 210.579 317.349Z" fill="#E2BE7F"/>
<path d="M141.239 147.461C136.051 153.016 134.836 166.002 140.738 164.534C145.779 163.863 143.604 152.41 143.53 154.844C143.505 155.658 142.553 159.697 140.853 160.463C139.991 161.253 139.179 160.415 138.39 158.771C136.822 155.483 140.287 151.508 141.239 147.461Z" fill="#E2BE7F"/>
<path d="M255.142 297.483C249.953 303.038 248.738 316.024 254.641 314.555C259.682 313.885 257.506 302.431 257.432 304.866C257.407 305.68 256.455 309.718 254.756 310.485C253.894 311.275 253.081 310.437 252.293 308.792C250.725 305.496 254.189 301.521 255.142 297.483Z" fill="#E2BE7F"/>
<path d="M180.802 136.702C175.613 142.257 174.398 155.243 180.301 153.775C185.342 153.104 183.166 141.651 183.093 144.085C183.068 144.899 182.116 148.938 180.416 149.704C179.554 150.494 178.741 149.656 177.953 148.012C176.377 144.724 179.842 140.749 180.802 136.702Z" fill="#E2BE7F"/>
<path d="M245.175 183.099C239.986 188.654 238.771 201.64 244.674 200.172C249.715 199.501 247.539 188.048 247.465 190.482C247.441 191.296 246.488 195.335 244.789 196.101C243.927 196.891 243.114 196.053 242.326 194.409C240.75 191.112 244.214 187.138 245.175 183.099Z" fill="#E2BE7F"/>
<path d="M281.7 129.032C276.512 134.587 275.297 147.573 281.199 146.104C286.24 145.434 284.065 133.98 283.991 136.415C283.966 137.229 283.014 141.268 281.314 142.034C280.452 142.824 279.639 141.986 278.851 140.342C277.275 137.053 280.74 133.079 281.7 129.032Z" fill="#E2BE7F"/>
<path d="M325.91 200.403C320.721 205.958 319.506 218.944 325.409 217.476C330.45 216.805 328.274 205.352 328.2 207.786C328.176 208.6 327.223 212.639 325.524 213.405C324.662 214.195 323.849 213.357 323.061 211.713C321.493 208.416 324.957 204.45 325.91 200.403Z" fill="#E2BE7F"/>
<path d="M37.9276 267.328C29.2745 276.85 26.9593 298.76 37.0656 296.605C44.6432 295.184 41.8683 275.581 41.7451 279.644C41.6959 281.272 39.8322 287.729 37.279 289.286C35.555 290.866 33.1002 289.166 32.3285 286.708C29.9969 280.945 36.064 273.785 37.9276 267.328Z" fill="#E2BE7F"/>
<path d="M112.012 298.081C118.055 291.736 121.019 276.355 114.278 277.8C108.4 278.455 109.664 292.319 109.763 289.07C109.788 288.256 111.602 283.427 113.301 282.661C114.163 281.871 115.814 282.733 116.602 284.377C117.291 289.278 112.965 294.043 112.012 298.081Z" fill="#E2BE7F"/>
<path d="M296.634 254.486C302.676 248.141 305.64 232.76 298.9 234.205C293.021 234.859 294.286 248.723 294.384 245.475C294.409 244.661 296.223 239.832 297.923 239.066C298.785 238.275 300.435 239.137 301.223 240.782C301.921 245.674 297.594 250.439 296.634 254.486Z" fill="#E2BE7F"/>
<path d="M145.147 271.407C137.331 280.953 134.992 303.676 145.098 301.513C152.7 299.286 149.925 279.676 148.94 284.529C148.915 285.343 147.889 291.824 145.311 294.194C143.612 294.96 141.157 293.268 140.385 290.802C138.054 285.047 144.121 277.888 145.147 271.407Z" fill="#E2BE7F"/>
<path d="M300.771 136.606C322.018 125.799 328.775 123.549 344.373 105.263C345.162 106.915 346.812 107.769 348.462 108.631C352.788 103.866 351.114 103.818 347.05 99.6438C351.853 78.6204 336.681 82.268 334.579 96.8583C337.017 99.3645 339.456 101.879 341.081 103.547C328.997 116.23 314.49 125.592 300.771 136.606Z" fill="#E2BE7F"/>
<path d="M167.822 247.638C176.689 230.797 177.017 219.415 160.647 206.756C160.549 210.013 160.458 213.261 160.36 216.518C172.576 228.243 169.924 233.048 167.822 247.638Z" fill="#E2BE7F"/>
<path d="M103.671 230.845C105.346 230.893 106.208 230.102 106.159 231.731C106.134 232.545 88.1303 247.51 85.4949 251.501C99.821 247.829 112.628 239.233 110.576 223.717C109.837 220.445 108.236 217.954 104.008 219.463C97.2185 222.528 95.5026 224.108 87.9579 224.715C87.8347 228.777 87.7444 232.034 86.7839 236.073C96.7916 237.166 96.8408 235.538 103.671 230.845Z" fill="#E2BE7F"/>
<path d="M22.7805 244.222C35.4071 235.003 65.7833 217.771 63.854 195.901C63.5666 192.661 61.6127 189.556 58.6161 184.089C57.6392 182.54 57.4996 180.92 59.2319 181.59C61.0462 183.075 61.2597 185.501 63.7555 185.294C65.2825 183.53 65.3482 184.344 65.1347 181.91C63.3696 171.446 47.065 176.889 57.4421 189.899C60.2253 192.932 62.2531 196.843 60.726 198.607C60.7999 199.421 59.823 197.865 58.9117 197.123C56.8839 193.212 55.0038 190.913 52.2864 188.694C50.4721 187.209 49.569 186.475 47.9845 187.417C45.5544 188.439 45.8418 191.679 46.9583 194.848C48.9122 197.953 53.2141 199.222 54.5277 195.031C56.4077 197.322 60.9395 201.026 59.4125 202.789C49.4048 222.408 35.0459 230.956 22.7805 244.222Z" fill="#E2BE7F"/>
<path d="M272.768 277.353C275.124 273.083 275.247 268.749 274.393 260.049C274.459 257.878 275.633 255.747 276.684 257.942C278.851 260.169 277.636 263.393 280.953 264.567C283.211 263.545 283.186 264.631 283.276 261.382C288.112 248.516 265.921 244.645 269.747 266.426C270.732 270.792 271.66 277.321 268.252 279.396C267.136 279.365 267.202 277.202 267.267 275.031C267.423 269.611 266.438 265.245 264.304 261.933C263.286 258.652 262.235 256.457 259.969 257.479C256.627 257.383 255.412 260.608 255.289 264.942C255.133 270.361 258.343 274.783 262.933 270.577C263.852 277.106 264.492 293.388 272.768 277.353Z" fill="#E2BE7F"/>
<path d="M215.341 155.267C216.728 149.401 214.725 145.003 211.835 135.72C210.833 133.518 210.957 130.836 213.091 132.544C216.859 134.866 216.104 139.145 218.863 139.264C221.752 136.702 221.128 138.291 221.884 134.012C221.523 118.377 196.885 123.732 209.183 144.756C211.186 149.153 214.199 155.754 211.31 158.316C211.31 158.316 210.809 157.215 209.807 155.02C207.295 149.521 205.292 145.123 200.522 140.597C199.52 138.394 197.386 136.686 195.12 137.66C191.729 139.121 191.467 144.5 192.977 147.797C194.356 153.783 199.758 156.72 202.771 151.468C206.917 157.574 213.313 174.567 215.341 155.267Z" fill="#E2BE7F"/>
<path d="M251.981 147.134C251.882 150.383 251.028 151.173 254.32 152.897C254.271 154.525 253.409 155.315 252.555 156.105C252.555 156.105 251.718 156.081 250.043 156.034C249.255 154.381 247.63 152.713 246.817 151.875C245.93 153.479 245.93 153.479 246.718 155.132C247.531 155.97 247.531 155.97 248.344 156.808C248.221 160.87 246.505 162.451 242.326 162.339C240.7 160.663 239.912 159.019 238.287 157.343C238.213 159.785 238.96 163.057 239.724 165.524C244.526 172.978 248.853 168.221 250.692 162.57C260.757 162.028 256.857 152.155 251.981 147.134Z" fill="#E2BE7F"/>
<path d="M98.2693 165.021C98.1708 168.269 97.317 169.059 100.609 170.783C100.56 172.412 99.6978 173.202 98.844 173.992C98.844 173.992 98.0066 173.968 96.3318 173.92C95.5437 172.268 93.9182 170.6 93.1054 169.762C92.2187 171.366 92.2187 171.366 93.0069 173.018C93.8197 173.856 93.8197 173.856 94.6324 174.694C94.5093 178.757 92.7934 180.337 88.6147 180.226C86.9891 178.549 86.201 176.905 84.5755 175.229C84.5016 177.672 85.2487 180.944 86.0122 183.41C90.8149 190.865 95.1414 186.108 96.9804 180.457C107.037 179.914 103.146 170.041 98.2693 165.021Z" fill="#E2BE7F"/>
<path d="M257.194 233.391C255.519 233.343 252.941 235.713 252.867 238.156C252.793 240.598 255.256 242.29 256.931 242.338C260.281 242.434 261.997 240.854 262.07 238.411C262.136 235.969 260.535 233.479 257.194 233.391Z" fill="#E2BE7F"/>
<path d="M216.285 301.833C214.61 301.785 212.032 304.155 211.958 306.598C211.884 309.04 214.347 310.732 216.022 310.78C219.372 310.876 221.087 309.295 221.161 306.853C221.235 304.411 219.626 301.928 216.285 301.833Z" fill="#E2BE7F"/>
<path d="M127.89 297.993C126.215 297.946 123.637 300.316 123.564 302.758C123.49 305.201 125.953 306.893 127.627 306.941C130.977 307.037 132.693 305.456 132.767 303.014C132.832 300.571 131.232 298.089 127.89 297.993Z" fill="#E2BE7F"/>
<path d="M47.5166 253.808C45.8418 253.76 43.2639 256.13 43.19 258.573C43.1161 261.015 45.5791 262.707 47.2539 262.755C50.6034 262.851 52.3193 261.27 52.3932 258.828C52.467 256.386 50.8661 253.903 47.5166 253.808Z" fill="#E2BE7F"/>
<path d="M202.919 197.953C201.244 197.905 198.667 200.275 198.593 202.718C198.519 205.16 200.982 206.852 202.657 206.9C206.006 206.996 207.722 205.415 207.796 202.973C207.87 200.531 206.269 198.04 202.919 197.953Z" fill="#E2BE7F"/>
<path d="M122.037 163.544C120.362 163.496 117.784 165.867 117.71 168.309C117.636 170.752 120.099 172.444 121.774 172.491C125.123 172.587 126.839 171.007 126.913 168.565C126.987 166.122 125.386 163.64 122.037 163.544Z" fill="#E2BE7F"/>
<path d="M78.2539 177.991C76.5792 177.943 75.7171 178.733 75.6761 180.361C75.6515 181.175 76.4642 182.013 78.139 182.053C78.9764 182.077 80.6758 181.311 80.6922 180.497C80.7415 178.869 79.0913 178.015 78.2539 177.991Z" fill="#E2BE7F"/>
<path d="M117.259 201.057C115.584 201.01 114.722 201.8 114.681 203.428C114.656 204.242 115.469 205.08 117.144 205.12C117.981 205.144 119.68 204.378 119.697 203.564C119.738 201.943 118.088 201.081 117.259 201.057Z" fill="#E2BE7F"/>
<path d="M158.242 256.465C156.567 256.418 155.705 257.208 155.664 258.836C155.639 259.65 156.452 260.488 158.127 260.528C158.964 260.552 160.664 259.786 160.68 258.972C160.729 257.351 159.079 256.489 158.242 256.465Z" fill="#E2BE7F"/>
<path d="M51.2684 276.834C49.5936 276.786 48.7316 277.577 48.6906 279.205C48.6659 280.019 49.4787 280.857 51.1535 280.897C51.9909 280.921 53.6903 280.155 53.7067 279.341C53.756 277.72 52.1058 276.858 51.2684 276.834Z" fill="#E2BE7F"/>
<path d="M78.1472 255.212C76.4724 255.164 75.6104 255.955 75.5693 257.583C75.5447 258.397 76.3575 259.235 78.0323 259.275C78.8697 259.299 80.5691 258.533 80.5855 257.719C80.6348 256.09 78.9846 255.236 78.1472 255.212Z" fill="#E2BE7F"/>
<path d="M170.753 293.859C169.079 293.811 168.217 294.601 168.175 296.23C168.151 297.044 168.964 297.882 170.638 297.922C171.476 297.946 173.175 297.179 173.192 296.365C173.241 294.737 171.591 293.883 170.753 293.859Z" fill="#E2BE7F"/>
<path d="M209.109 260.855C207.435 260.807 206.573 261.598 206.531 263.226C206.507 264.04 207.32 264.878 208.994 264.918C209.832 264.942 211.531 264.176 211.548 263.361C211.589 261.741 209.947 260.879 209.109 260.855Z" fill="#E2BE7F"/>
<path d="M224.733 334.485C223.058 334.437 222.196 335.227 222.155 336.856C222.13 337.67 222.943 338.508 224.618 338.548C225.455 338.572 227.154 337.805 227.171 336.991C227.22 335.371 225.57 334.509 224.733 334.485Z" fill="#E2BE7F"/>
<path d="M191.409 333.759C189.734 333.711 188.872 334.501 188.831 336.129C188.807 336.943 189.619 337.781 191.294 337.821C192.132 337.845 193.831 337.079 193.847 336.265C193.897 334.645 192.246 333.783 191.409 333.759Z" fill="#E2BE7F"/>
<path d="M271.282 295.024C269.607 294.976 268.745 295.767 268.704 297.395C268.679 298.209 269.492 299.047 271.167 299.087C272.004 299.111 273.704 298.345 273.72 297.531C273.761 295.902 272.111 295.048 271.282 295.024Z" fill="#E2BE7F"/>
<path d="M313.086 222.097C311.411 222.049 310.549 222.839 310.508 224.467C310.483 225.281 311.296 226.12 312.971 226.159C313.808 226.183 315.508 225.417 315.524 224.603C315.574 222.975 313.923 222.121 313.086 222.097Z" fill="#E2BE7F"/>
<path d="M349.209 149.552C347.534 149.505 346.672 150.295 346.631 151.923C346.607 152.737 347.419 153.575 349.094 153.615C349.931 153.639 351.631 152.873 351.647 152.059C351.697 150.438 350.046 149.576 349.209 149.552Z" fill="#E2BE7F"/>
<path d="M264.024 139.823C262.35 139.775 261.488 140.565 261.447 142.194C261.422 143.008 262.235 143.846 263.91 143.886C264.747 143.91 266.446 143.143 266.463 142.329C266.512 140.709 264.862 139.847 264.024 139.823Z" fill="#E2BE7F"/>
<path d="M302.487 120.867C300.812 120.819 299.95 121.609 299.909 123.237C299.885 124.051 300.697 124.889 302.372 124.929C303.21 124.953 304.909 124.187 304.926 123.373C304.975 121.745 303.325 120.891 302.487 120.867Z" fill="#E2BE7F"/>
<path d="M198.486 114.21C196.811 114.162 195.949 114.952 195.908 116.581C195.883 117.395 196.696 118.233 198.371 118.273C199.208 118.297 200.908 117.531 200.924 116.716C200.973 115.088 199.323 114.234 198.486 114.21Z" fill="#E2BE7F"/>
<path d="M298.924 90.8881C297.249 90.8402 296.387 91.6304 296.346 93.2586C296.322 94.0727 297.134 94.9108 298.809 94.9507C299.647 94.9747 301.346 94.2084 301.362 93.3943C301.404 91.7661 299.762 90.912 298.924 90.8881Z" fill="#E2BE7F"/>
<path d="M366.523 175.221C364.849 175.173 363.987 175.963 363.945 177.592C363.921 178.406 364.734 179.244 366.408 179.284C367.246 179.308 368.945 178.542 368.962 177.727C369.011 176.099 367.361 175.237 366.523 175.221Z" fill="#E2BE7F"/>
<path d="M67.6058 323.67C65.9311 323.622 65.069 324.412 65.028 326.041C65.0033 326.855 65.8161 327.693 67.4909 327.733C68.3283 327.757 70.0277 326.99 70.0441 326.176C70.0934 324.556 68.4432 323.694 67.6058 323.67Z" fill="#E2BE7F"/>
<path d="M188.528 172.284C186.853 172.236 185.991 173.026 185.95 174.654C185.925 175.469 186.738 176.307 188.413 176.347C189.25 176.371 190.949 175.604 190.966 174.79C191.015 173.17 189.365 172.308 188.528 172.284Z" fill="#E2BE7F"/>
<path d="M231.711 114.769C230.036 114.721 229.174 115.511 229.133 117.139C229.108 117.954 229.921 118.792 231.596 118.831C232.433 118.855 234.133 118.089 234.149 117.275C234.198 115.647 232.548 114.793 231.711 114.769Z" fill="#E2BE7F"/>
<path d="M96.028 290.93C94.3533 290.882 93.4912 291.672 93.4502 293.3C93.4256 294.114 94.2383 294.952 95.9131 294.992C96.7505 295.016 98.4499 294.25 98.4663 293.436C98.5074 291.816 96.8654 290.954 96.028 290.93Z" fill="#E2BE7F"/>
</svg>
